<?xml version="1.0" encoding="utf-8"?>
<!-- Generator: Adobe Illustrator 15.0.0, SVG Export Plug-In  -->
<!DOCTYPE svg PUBLIC "-//W3C//DTD SVG 1.1//EN" "http://www.w3.org/Graphics/SVG/1.1/DTD/svg11.dtd" [
	<!ENTITY ns_flows "http://ns.adobe.com/Flows/1.0/">
]>
<svg version="1.1"
	 xmlns="http://www.w3.org/2000/svg" xmlns:xlink="http://www.w3.org/1999/xlink" xmlns:a="http://ns.adobe.com/AdobeSVGViewerExtensions/3.0/"
	 x="0px" y="0px" width="320px" height="60px" viewBox="-11.851 -0.416 320 60"
	 overflow="visible" enable-background="new -11.851 -0.416 320 60" xml:space="preserve">
<defs>
</defs>
<line fill="none" stroke="#808080" stroke-width="0.0913" x1="254.445" y1="0" x2="254.445" y2="59.457"/>
<g>
	<g>
		<path fill="#999999" d="M297.596,20.922c-0.046-0.075-0.784-1.361-2.265-2.681c-1.47-1.314-3.754-2.686-6.761-2.686
			c-3.006,0-5.263,1.375-6.708,2.696c-0.445,0.407-0.821,0.812-1.129,1.179c-0.319-0.371-0.708-0.779-1.169-1.189
			c-1.474-1.314-3.751-2.686-6.761-2.686c-3.004,0-5.264,1.375-6.707,2.696c-1.452,1.326-2.158,2.616-2.2,2.691l-0.153,0.597v19.417
			l2.326,0.592l0.005,0.002c0.032-0.064,0.657-1.139,1.804-2.148c1.157-1.014,2.771-1.947,4.926-1.949
			c2.227,0,3.918,1.002,5.109,2.059c0.591,0.527,1.043,1.059,1.342,1.451c0.147,0.197,0.259,0.359,0.329,0.467
			c0.029,0.043,0.05,0.08,0.068,0.104c0.204,0.398,0.619,0.67,1.097,0.67c0.489,0,0.91-0.283,1.111-0.689
			c0.122-0.211,0.734-1.188,1.784-2.111c1.155-1.014,2.771-1.947,4.926-1.949c2.225,0,3.917,1.002,5.11,2.059
			c0.593,0.527,1.044,1.059,1.341,1.451c0.149,0.197,0.256,0.359,0.33,0.467c0.033,0.055,0.059,0.094,0.072,0.119
			c0.009,0.014,0.015,0.02,0.017,0.023h0.004l2.314-0.615V21.54L297.596,20.922z M279.509,37.61
			c-1.472-1.301-3.735-2.639-6.705-2.639H272.8c-2.916,0-5.129,1.297-6.574,2.58V21.887c0.252-0.385,0.812-1.162,1.652-1.899
			c1.157-1.015,2.771-1.949,4.926-1.95c2.227,0,3.918,1,5.109,2.057c0.591,0.524,1.043,1.057,1.342,1.452
			c0.104,0.138,0.189,0.259,0.254,0.355V37.61z M295.276,37.608c-1.474-1.301-3.736-2.637-6.706-2.637
			c-2.919,0-5.131,1.297-6.577,2.58V21.887c0.251-0.385,0.811-1.161,1.651-1.899c1.155-1.015,2.771-1.949,4.926-1.95
			c2.225,0,3.917,1,5.11,2.057c0.593,0.524,1.044,1.057,1.341,1.452c0.104,0.135,0.188,0.256,0.255,0.355V37.608z M267.712,23.079
			l1.016,1.336l0.134,0.187c0.064-0.044,1.406-0.989,4.116-0.993c1.447,0,2.522,0.272,3.227,0.531c0.352,0.13,0.61,0.26,0.772,0.35
			c0.084,0.045,0.142,0.081,0.178,0.101c0.014,0.011,0.025,0.018,0.028,0.02c0,0.002,0.001,0.002,0.001,0.002l0.002,0.001
			l0.307-0.435l0.81-1.115c-0.111-0.082-1.941-1.363-5.324-1.363C269.596,21.699,267.826,22.985,267.712,23.079 M268.861,28.73
			c0.064-0.041,1.406-0.991,4.116-0.992c1.447,0.001,2.522,0.272,3.227,0.532c0.352,0.129,0.61,0.26,0.772,0.348
			c0.084,0.046,0.142,0.081,0.178,0.102c0.014,0.012,0.025,0.021,0.028,0.022c0.001,0,0.003,0,0.003,0l0.3-0.424l0.816-1.124v-0.001
			c-0.111-0.083-1.941-1.367-5.324-1.364c-3.382-0.005-5.151,1.284-5.266,1.375l1.157,1.521l-0.142-0.183L268.861,28.73z
			 M267.712,31.337l1.055,1.389l-0.039-0.049l0.134,0.184l0.008-0.006c0.112-0.074,1.457-0.984,4.108-0.984
			c1.447,0,2.522,0.27,3.227,0.531c0.352,0.129,0.61,0.258,0.774,0.35c0.082,0.045,0.14,0.078,0.176,0.102
			c0.014,0.008,0.025,0.02,0.028,0.02l0.001,0.002h0.002l0.31-0.438l0.807-1.111c-0.111-0.084-1.941-1.368-5.324-1.367
			C269.596,29.958,267.826,31.245,267.712,31.337 M293.058,24.614l0.316-0.448l-0.321,0.443v0.001
			C293.056,24.612,293.058,24.614,293.058,24.614 M284.6,24.415l0.135,0.187l0,0c0.064-0.044,1.406-0.989,4.115-0.993
			c1.448,0,2.521,0.272,3.226,0.531c0.354,0.13,0.61,0.26,0.774,0.35c0.083,0.045,0.142,0.081,0.176,0.101
			c0.013,0.009,0.02,0.014,0.027,0.018l1.119-1.545c-0.11-0.082-1.938-1.363-5.322-1.363c-3.382-0.001-5.148,1.285-5.266,1.378
			l1.156,1.519L284.6,24.415z M284.734,28.73c0.064-0.041,1.406-0.991,4.115-0.992c1.448,0.001,2.521,0.272,3.226,0.532
			c0.354,0.129,0.61,0.26,0.774,0.348c0.083,0.046,0.142,0.081,0.176,0.102c0.013,0.01,0.021,0.016,0.028,0.021
			c0.004,0.001,0.004,0.001,0.004,0.001l0.305-0.432l0.81-1.116v-0.001c-0.11-0.083-1.938-1.367-5.322-1.364
			c-3.382-0.005-5.151,1.284-5.266,1.375l1.156,1.521l-0.141-0.182L284.734,28.73z M283.584,31.337l1.018,1.34l0.133,0.184
			c0.003-0.002,0.005-0.002,0.006-0.006c0.114-0.074,1.459-0.984,4.109-0.984c1.448,0,2.521,0.27,3.226,0.531
			c0.354,0.129,0.61,0.258,0.774,0.35c0.083,0.045,0.142,0.078,0.176,0.102c0.015,0.008,0.023,0.02,0.03,0.02l0.002,0.002l0,0
			l0.311-0.438l0.804-1.111c-0.11-0.084-1.94-1.368-5.322-1.367C285.468,29.958,283.701,31.245,283.584,31.337"/>
	</g>
</g>
<polygon fill="#999999" points="0,8.204 15.05,8.204 15.05,48.938 7.596,42.335 0.071,49.294 "/>
</svg>
