<?xml version="1.0" encoding="utf-8"?>
<!-- Generator: Adobe Illustrator 15.0.0, SVG Export Plug-In  -->
<!DOCTYPE svg PUBLIC "-//W3C//DTD SVG 1.1//EN" "http://www.w3.org/Graphics/SVG/1.1/DTD/svg11.dtd" [
	<!ENTITY ns_flows "http://ns.adobe.com/Flows/1.0/">
]>
<svg version="1.1"
	 xmlns="http://www.w3.org/2000/svg" xmlns:xlink="http://www.w3.org/1999/xlink" xmlns:a="http://ns.adobe.com/AdobeSVGViewerExtensions/3.0/"
	 x="0px" y="0px" width="25px" height="24px" viewBox="-1.5 -1.167 25 24"
	 overflow="visible" enable-background="new -1.5 -1.167 25 24" xml:space="preserve">
<defs>
</defs>
<g>
	<g>
		<path fill="#5B6775" d="M8.06,11.174l-1.061,3.182c0,0,3.241-1.119,3.182-1.061C10.181,12.117,9.181,11.174,8.06,11.174z
			 M16.546,2.688l-7.779,7.778c1.002,0,2.121,1.119,2.121,2.121c-0.059-0.059,7.838-7.838,7.778-7.779
			C18.667,3.807,17.665,2.688,16.546,2.688z M20.081,1.981c-0.641-0.642-0.089-0.089-0.707-0.707
			c-0.619-0.618-1.414-0.001-1.414-0.001s-0.648,0.648-0.707,0.709c1.002-0.001,2.121,1.119,2.121,2.119l0.707-0.707
			C20.08,3.395,20.722,2.622,20.081,1.981z M16,16H2V2h13.82l0.312-0.311h0.009l0.397-0.406c0.059-0.061,0.715-0.715,0.715-0.715
			l0.044-0.045l0.021-0.018C16.966,0.195,16.507,0,16,0H2C0.896,0,0,0.896,0,2v14c0,1.104,0.896,2,2,2h14c1.104,0,2-0.896,2-2V6.871
			c-0.579,0.572-1.278,1.264-2,1.98V16z"/>
	</g>
	<g>
		<path fill="#FFFFFF" d="M8.06,12.174l-1.061,3.182c0,0,3.241-1.119,3.182-1.061C10.181,13.117,9.181,12.174,8.06,12.174z
			 M16.546,3.688l-7.779,7.778c1.002,0,2.121,1.119,2.121,2.121c-0.059-0.059,7.838-7.838,7.778-7.779
			C18.667,4.807,17.665,3.688,16.546,3.688z M20.081,2.981c-0.641-0.642-0.089-0.089-0.707-0.707
			c-0.619-0.618-1.414-0.001-1.414-0.001s-0.648,0.648-0.707,0.709c1.002-0.001,2.121,1.119,2.121,2.119l0.707-0.707
			C20.08,4.395,20.722,3.622,20.081,2.981z M16,17H2V3h13.82l0.312-0.311h0.009l0.397-0.406c0.059-0.061,0.715-0.715,0.715-0.715
			l0.044-0.045l0.021-0.018C16.966,1.195,16.507,1,16,1H2C0.896,1,0,1.896,0,3v14c0,1.104,0.896,2,2,2h14c1.104,0,2-0.896,2-2V7.871
			c-0.579,0.572-1.278,1.264-2,1.98V17z"/>
	</g>
</g>
</svg>
