<?xml version="1.0" encoding="utf-8"?>
<!-- Generator: Adobe Illustrator 15.0.0, SVG Export Plug-In  -->
<!DOCTYPE svg PUBLIC "-//W3C//DTD SVG 1.1//EN" "http://www.w3.org/Graphics/SVG/1.1/DTD/svg11.dtd" [
	<!ENTITY ns_flows "http://ns.adobe.com/Flows/1.0/">
]>
<svg version="1.1"
	 xmlns="http://www.w3.org/2000/svg" xmlns:xlink="http://www.w3.org/1999/xlink" xmlns:a="http://ns.adobe.com/AdobeSVGViewerExtensions/3.0/"
	 x="0px" y="0px" width="14px" height="16px" viewBox="0.004 0 14 16" overflow="visible" enable-background="new 0.004 0 14 16"
	 xml:space="preserve">
<defs>
</defs>
<path d="M6.955,0C3.114,0,0,3.114,0,6.957c0,3.841,3.114,6.956,6.955,6.956c3.842,0,6.956-3.114,6.956-6.956
	C13.911,3.114,10.797,0,6.955,0z M6.622,1.322h0.885v1.735H6.622V1.322z M3.978,4.569L2.75,3.341l0.625-0.625l1.228,1.228
	L3.978,4.569z M4.414,1.958l0.801-0.375l0.733,1.574L5.146,3.531L4.414,1.958z M7.078,12.026c-0.77,0-1.393-0.623-1.393-1.392
	c0-0.6,0.381-1.111,0.913-1.306V5.358h0.885v3.944c0.57,0.174,0.985,0.705,0.985,1.332C8.469,11.403,7.846,12.026,7.078,12.026z
	 M8.113,3.157l0.734-1.574l0.801,0.373L8.915,3.53L8.113,3.157z M10.057,4.569L9.432,3.943l1.228-1.228l0.625,0.625L10.057,4.569z"
	/>
</svg>
