<?xml version="1.0" encoding="utf-8"?>
<!-- Generator: Adobe Illustrator 15.0.0, SVG Export Plug-In . SVG Version: 6.00 Build 0)  -->
<!DOCTYPE svg PUBLIC "-//W3C//DTD SVG 1.1//EN" "http://www.w3.org/Graphics/SVG/1.1/DTD/svg11.dtd">
<svg version="1.1" id="Layer_1" xmlns="http://www.w3.org/2000/svg" xmlns:xlink="http://www.w3.org/1999/xlink" x="0px" y="0px"
	 width="27px" height="27.771px" viewBox="0 0 27 27.771" enable-background="new 0 0 27 27.771" xml:space="preserve">
<g>
	<path fill="#D41476" d="M27,23.915c0,2.13-1.727,3.856-3.857,3.856H3.857C1.727,27.771,0,26.044,0,23.915V3.856
		C0,1.727,1.727,0,3.857,0h19.285C25.273,0,27,1.727,27,3.856V23.915z"/>
	<path opacity="0.4" fill="#E988B9" d="M23.143,0H3.857C1.727,0,0,2.016,0,4.502v5.769c1.541,4.237,5.23,5.076,8.986,5.764
		c5.727,1.05,12.521-0.033,18.014-3.241V4.502C27,2.016,25.273,0,23.143,0z"/>
	<g>
		<g>
			<circle fill="#D41476" stroke="#FFFFFF" stroke-width="0.6097" cx="20.606" cy="8.547" r="3.655"/>
			<line fill="none" stroke="#FFFFFF" stroke-width="0.6097" x1="20.654" y1="5.001" x2="20.654" y2="12.167"/>
			<line fill="none" stroke="#FFFFFF" stroke-width="0.6097" x1="18.188" y1="6.073" x2="23.121" y2="11.008"/>
			<line fill="none" stroke="#FFFFFF" stroke-width="0.6097" x1="18.275" y1="10.921" x2="23.121" y2="6.073"/>
			<line fill="none" stroke="#FFFFFF" stroke-width="0.6097" x1="17.195" y1="8.738" x2="24.232" y2="8.738"/>
		</g>
		<g>
			
				<line fill="none" stroke="#FFFFFF" stroke-width="1.5623" stroke-linecap="round" x1="14.209" y1="11.812" x2="9.58" y2="4.727"/>
			<polygon fill="#FFFFFF" stroke="#FFFFFF" stroke-width="0.7059" points="7.307,8.502 14.023,15.125 20.436,8.502 			"/>
			<polyline fill="none" stroke="#FFFFFF" stroke-width="1.5623" stroke-linecap="round" points="14.023,13.562 14.023,22.146 
				18.477,22.146 9.709,22.146 			"/>
			<polyline fill="none" stroke="#FFFFFF" stroke-width="1.5623" stroke-linecap="round" points="18.223,22.146 18.143,22.146 
				14.139,22.146 			"/>
		</g>
	</g>
</g>
<g>
	<path fill="#9CBF03" d="M65.907,23.915c0,2.129-1.727,3.856-3.857,3.856H42.765c-2.131,0-3.857-1.728-3.857-3.856V3.856
		C38.907,1.727,40.634,0,42.765,0H62.05c2.131,0,3.857,1.728,3.857,3.856V23.915z"/>
</g>
<g>
	<path fill="#ACCA2D" d="M62.05,0H42.765c-2.131,0-3.857,1.728-3.857,3.856v5.271c4.526,6.502,17.957,7.419,25.802,5.279
		c0.45-0.113,0.844-0.297,1.198-0.526V3.856C65.907,1.727,64.181,0,62.05,0z"/>
</g>
<path fill="#00AEEF" d="M103.024,23.915c0,2.129-1.727,3.856-3.857,3.856H79.882c-2.131,0-3.857-1.728-3.857-3.856V3.856
	C76.024,1.727,77.751,0,79.882,0h19.285c2.131,0,3.857,1.728,3.857,3.856V23.915z"/>
<path opacity="0.4" fill="#77D4F7" d="M99.078,0.009H79.792c-2.13,0-3.856,2.016-3.856,4.502v5.769
	c3.12,2.194,6.79,3.575,9.591,5.211c5.794,2.029,11.916,0.52,17.409-2.688V4.511C102.936,2.025,101.208,0.009,99.078,0.009z"/>
<g>
	<path fill="#FFFFFF" d="M93.029,13.823h-6.361c-2.16,0-3.913,1.393-3.913,3.109v1.103l0.531,0.229l-0.531,2.77h14.188l-0.531-2.9
		l0.531-0.112v-1.089C96.943,15.215,95.191,13.823,93.029,13.823z"/>
	
		<line fill="none" stroke="#FFFFFF" stroke-width="1.2108" stroke-linecap="round" x1="81.531" y1="22.526" x2="98.656" y2="22.526"/>
	<g>
		<rect x="85.689" y="9.887" fill="#FFFFFF" width="1.713" height="3.731"/>
		<path fill="#FFFFFF" d="M86.9,6.593c0,0-0.064,0.128-0.59,0.663c-0.312,0.317-0.434,0.488-0.373,0.749
			c-0.09,0.108-0.045,0.242-0.045,0.386c0,0.372,0.351,0.671,0.779,0.671c0.43,0,0.778-0.299,0.778-0.671
			c0-0.021,0.064-0.04,0.062-0.062c0.051-0.05,0.033-0.106,0.077-0.169C88.058,7.482,86.9,6.593,86.9,6.593z"/>
	</g>
	<rect x="88.844" y="8.512" fill="#FFFFFF" width="1.715" height="5.023"/>
	<path fill="#FFFFFF" d="M90.056,5.543c0,0-0.065,0.125-0.59,0.66c-0.315,0.322-0.432,0.491-0.374,0.751
		c-0.09,0.108-0.044,0.241-0.044,0.388c0,0.368,0.349,0.667,0.776,0.667c0.432,0,0.779-0.299,0.779-0.667
		c0-0.021,0.065-0.046,0.062-0.065c0.052-0.049,0.034-0.104,0.075-0.167C91.211,6.432,90.056,5.543,90.056,5.543z"/>
	<g>
		<rect x="92" y="9.887" fill="#FFFFFF" width="1.709" height="3.731"/>
		<path fill="#FFFFFF" d="M93.209,6.593c0,0-0.066,0.128-0.589,0.663c-0.315,0.317-0.434,0.488-0.373,0.749
			c-0.092,0.108-0.046,0.242-0.046,0.386c0,0.372,0.349,0.671,0.777,0.671c0.43,0,0.779-0.299,0.779-0.671
			c0-0.021,0.065-0.04,0.062-0.062c0.05-0.05,0.033-0.106,0.074-0.169C94.365,7.482,93.209,6.593,93.209,6.593z"/>
	</g>
	<path fill="none" stroke="#00AEEF" stroke-width="0.7" stroke-linecap="round" d="M82.948,16.386c0,0,0.946-0.145,2.163,0.488
		c1.679,0.865,1.373,0.991,2.408,1.061c1.926,0.131,1.621-0.546,2.432-0.843c0.947-0.356,1.696-0.625,2.647,0.046
		c0.955,0.665,0.879,1.471,2.019,1.039c1.143-0.438,1.148-1.028,2.111-0.9"/>
</g>
<path fill="#E1FFFF" d="M86.812,7.421c0,0-0.026,0.067-0.265,0.348c-0.141,0.167-0.194,0.258-0.169,0.395
	c-0.04,0.056-0.02,0.127-0.02,0.202c0,0.195,0.159,0.352,0.352,0.352c0.194,0,0.352-0.156,0.352-0.352
	c0-0.011,0.029-0.021,0.027-0.033c0.023-0.025,0.016-0.056,0.035-0.089C87.336,7.889,86.812,7.421,86.812,7.421z"/>
<path fill="#E1FFFF" d="M89.95,6.494c0,0-0.027,0.067-0.266,0.348c-0.14,0.167-0.194,0.258-0.169,0.395
	c-0.041,0.056-0.02,0.127-0.02,0.202c0,0.195,0.159,0.352,0.352,0.352c0.195,0,0.353-0.156,0.353-0.352
	c0-0.011,0.028-0.021,0.026-0.033c0.023-0.025,0.016-0.056,0.035-0.089C90.473,6.961,89.95,6.494,89.95,6.494z"/>
<path fill="#E1FFFF" d="M93.109,7.449c0,0-0.027,0.067-0.266,0.348c-0.141,0.167-0.194,0.258-0.17,0.395
	c-0.039,0.056-0.019,0.127-0.019,0.202c0,0.195,0.159,0.352,0.352,0.352c0.194,0,0.353-0.156,0.353-0.352
	c0-0.011,0.028-0.021,0.027-0.033c0.021-0.025,0.015-0.056,0.034-0.089C93.632,7.917,93.109,7.449,93.109,7.449z"/>
<path fill="#FFFFFF" d="M56.188,17.788h-1.884v1.883h1.884V17.788z M53.536,12.743H51.65v1.887h1.886V12.743z M56.188,15.266h-1.884
	v1.883h1.884V15.266z M58.844,12.743H56.96v1.887h1.884V12.743z M53.536,15.266H51.65v1.883h1.886V15.266z M56.188,12.743h-1.884
	v1.887h1.884V12.743z M58.844,15.266H56.96v1.883h1.884V15.266z M48.225,17.788h-1.884v1.883h1.884V17.788z M48.225,15.266h-1.884
	v1.883h1.884V15.266z M58.356,6.102v0.83c0.325,0.286,0.535,0.706,0.535,1.172c0,0.865-0.707,1.569-1.572,1.569
	c-0.867,0-1.567-0.704-1.567-1.569c0-0.466,0.204-0.886,0.53-1.172v-0.83h-7.335v0.83c0.326,0.286,0.533,0.706,0.533,1.172
	c0,0.865-0.705,1.569-1.57,1.569c-0.868,0-1.571-0.704-1.571-1.569c0-0.466,0.208-0.886,0.533-1.172v-0.83h-3.497V22.8h18.337V6.102
	H58.356z M60.038,21.125h-14.99V10.692h14.99V21.125z M50.881,12.743h-1.885v1.887h1.885V12.743z M50.881,17.788h-1.885v1.883h1.885
	V17.788z M53.536,17.788H51.65v1.883h1.886V17.788z M50.881,15.266h-1.885v1.883h1.885V15.266z M47.91,9.017
	c0.433,0,0.78-0.348,0.78-0.778V5.424c0-0.432-0.347-0.781-0.78-0.781c-0.432,0-0.781,0.349-0.781,0.781v2.815
	C47.128,8.669,47.478,9.017,47.91,9.017z M57.319,9.017c0.432,0,0.78-0.348,0.78-0.778V5.424c0-0.432-0.349-0.781-0.78-0.781
	s-0.78,0.349-0.78,0.781v2.815C56.539,8.669,56.888,9.017,57.319,9.017z"/>
</svg>
