<?xml version="1.0" encoding="utf-8"?>
<!-- Generator: Adobe Illustrator 15.0.0, SVG Export Plug-In  -->
<!DOCTYPE svg PUBLIC "-//W3C//DTD SVG 1.1//EN" "http://www.w3.org/Graphics/SVG/1.1/DTD/svg11.dtd" [
	<!ENTITY ns_flows "http://ns.adobe.com/Flows/1.0/">
]>
<svg version="1.1"
	 xmlns="http://www.w3.org/2000/svg" xmlns:xlink="http://www.w3.org/1999/xlink" xmlns:a="http://ns.adobe.com/AdobeSVGViewerExtensions/3.0/"
	 x="0px" y="0px" width="25px" height="21px" viewBox="0 0 25 21" overflow="visible" enable-background="new 0 0 25 21"
	 xml:space="preserve">
<defs>
</defs>
<g>
	<g>
		<path fill="#999999" d="M21.985,3.485c-0.029-0.049-0.509-0.884-1.471-1.741C19.561,0.891,18.077,0,16.124,0
			c-1.952,0-3.418,0.894-4.356,1.751c-0.289,0.265-0.533,0.527-0.733,0.766c-0.207-0.24-0.459-0.506-0.759-0.772
			C9.318,0.891,7.839,0,5.885,0C3.934,0,2.466,0.894,1.528,1.751C0.586,2.612,0.127,3.45,0.1,3.499L0,3.887v12.608l1.511,0.385
			l0.003,0.002c0.021-0.042,0.427-0.74,1.172-1.396c0.751-0.658,1.8-1.265,3.199-1.267c1.446,0,2.544,0.651,3.318,1.338
			c0.384,0.342,0.677,0.687,0.871,0.942c0.096,0.128,0.168,0.232,0.214,0.303c0.019,0.028,0.032,0.052,0.044,0.067
			c0.133,0.259,0.402,0.435,0.713,0.435c0.317,0,0.591-0.184,0.722-0.448c0.079-0.136,0.477-0.771,1.158-1.37
			c0.751-0.658,1.801-1.265,3.199-1.267c1.445,0,2.544,0.651,3.319,1.338c0.385,0.342,0.678,0.687,0.871,0.942
			c0.097,0.128,0.166,0.232,0.214,0.303c0.021,0.035,0.038,0.061,0.047,0.077c0.006,0.009,0.01,0.013,0.011,0.016h0.003l1.503-0.4
			V3.887L21.985,3.485z M10.239,14.322c-0.956-0.845-2.426-1.713-4.354-1.713H5.882c-1.894,0-3.331,0.842-4.27,1.675V4.112
			c0.164-0.25,0.527-0.755,1.073-1.233c0.751-0.659,1.8-1.266,3.199-1.267c1.446,0,2.544,0.649,3.318,1.336
			c0.384,0.341,0.677,0.687,0.871,0.943c0.067,0.09,0.123,0.168,0.165,0.23V14.322z M20.479,14.321
			c-0.957-0.845-2.427-1.712-4.355-1.712c-1.896,0-3.332,0.842-4.271,1.675V4.112c0.163-0.25,0.526-0.754,1.072-1.233
			c0.751-0.659,1.801-1.266,3.199-1.267c1.445,0,2.544,0.649,3.319,1.336c0.385,0.341,0.678,0.687,0.871,0.943
			c0.067,0.088,0.121,0.166,0.165,0.23V14.321z M2.578,4.886l0.659,0.868l0.087,0.121C3.366,5.847,4.237,5.232,5.997,5.23
			c0.94,0,1.639,0.177,2.096,0.345C8.321,5.66,8.489,5.744,8.595,5.803C8.649,5.832,8.687,5.855,8.71,5.868
			C8.719,5.875,8.727,5.88,8.729,5.881c0,0.001,0.001,0.001,0.001,0.001L8.73,5.883L8.93,5.601l0.525-0.725
			C9.383,4.823,8.194,3.991,5.997,3.991C3.801,3.99,2.652,4.825,2.578,4.886 M3.324,8.557C3.366,8.53,4.237,7.913,5.997,7.912
			c0.94,0.001,1.639,0.177,2.096,0.346c0.229,0.084,0.396,0.169,0.502,0.226C8.649,8.514,8.687,8.536,8.71,8.55
			c0.009,0.008,0.017,0.014,0.019,0.015c0.001,0,0.002,0,0.002,0l0.194-0.275l0.53-0.729V7.559C9.383,7.505,8.194,6.671,5.997,6.673
			C3.801,6.67,2.652,7.507,2.578,7.566l0.751,0.987L3.237,8.435L3.324,8.557z M2.578,10.249l0.685,0.901l-0.025-0.032l0.087,0.12
			l0.005-0.004c0.073-0.049,0.946-0.64,2.668-0.64c0.94,0,1.639,0.176,2.096,0.345c0.229,0.084,0.396,0.168,0.503,0.228
			c0.054,0.029,0.091,0.051,0.114,0.065c0.009,0.006,0.017,0.013,0.019,0.014l0.001,0.001H8.73l0.201-0.284l0.523-0.722
			c-0.072-0.056-1.261-0.889-3.458-0.888C3.801,9.353,2.652,10.188,2.578,10.249 M19.038,5.883l0.206-0.291L19.035,5.88v0.001
			C19.037,5.882,19.038,5.883,19.038,5.883 M13.546,5.754l0.087,0.121l0,0c0.042-0.028,0.913-0.643,2.673-0.645
			c0.94,0,1.638,0.177,2.095,0.345c0.229,0.085,0.396,0.169,0.503,0.228c0.054,0.029,0.092,0.053,0.114,0.065
			c0.008,0.006,0.013,0.009,0.018,0.012l0.728-1.004c-0.072-0.053-1.26-0.885-3.457-0.885c-2.196-0.001-3.344,0.834-3.42,0.895
			l0.751,0.986L13.546,5.754z M13.633,8.557c0.042-0.026,0.913-0.644,2.673-0.645c0.94,0.001,1.638,0.177,2.095,0.346
			c0.229,0.084,0.396,0.169,0.503,0.226c0.054,0.03,0.092,0.053,0.114,0.066c0.009,0.007,0.014,0.011,0.019,0.014
			c0.002,0.001,0.002,0.001,0.002,0.001l0.198-0.28l0.526-0.725V7.559c-0.072-0.054-1.26-0.888-3.457-0.886
			c-2.196-0.003-3.346,0.834-3.42,0.894l0.751,0.987l-0.091-0.118L13.633,8.557z M12.886,10.249l0.661,0.87l0.086,0.119
			c0.002-0.001,0.003-0.002,0.004-0.004c0.074-0.049,0.947-0.64,2.669-0.64c0.94,0,1.638,0.176,2.095,0.345
			c0.229,0.084,0.396,0.168,0.503,0.228c0.054,0.029,0.092,0.051,0.114,0.065c0.01,0.006,0.016,0.013,0.02,0.014l0.001,0.001l0,0
			l0.202-0.284l0.522-0.722c-0.072-0.056-1.261-0.889-3.457-0.888C14.109,9.353,12.962,10.188,12.886,10.249"/>
	</g>
</g>
</svg>
