<?xml version="1.0" encoding="utf-8"?>
<!-- Generator: Adobe Illustrator 15.0.0, SVG Export Plug-In  -->
<!DOCTYPE svg PUBLIC "-//W3C//DTD SVG 1.1//EN" "http://www.w3.org/Graphics/SVG/1.1/DTD/svg11.dtd" [
	<!ENTITY ns_flows "http://ns.adobe.com/Flows/1.0/">
]>
<svg version="1.1"
	 xmlns="http://www.w3.org/2000/svg" xmlns:xlink="http://www.w3.org/1999/xlink" xmlns:a="http://ns.adobe.com/AdobeSVGViewerExtensions/3.0/"
	 x="0px" y="0px" width="25px" height="23px" viewBox="-0.566 -0.283 25 23"
	 overflow="visible" enable-background="new -0.566 -0.283 25 23" xml:space="preserve">
<defs>
</defs>
<path fill="#999999" d="M16.904,18.89c0,0.753-0.617,1.369-1.371,1.369H2.74c-0.756,0-1.369-0.616-1.369-1.369V5.417
	c0-0.755,0.613-1.369,1.369-1.369h11.528c0.513-0.445,1.049-0.895,1.604-1.348c-0.112-0.014-0.224-0.022-0.339-0.022H2.74
	C1.227,2.678,0,3.904,0,5.417V18.89c0,1.514,1.227,2.74,2.74,2.74h12.793c1.513,0,2.74-1.227,2.74-2.74V9.528
	c-0.464,0.608-0.923,1.227-1.369,1.855V18.89z M22.731,0C16.307,3.938,11.646,8.911,9.548,11.404l-5.129-4.02L2.153,9.211
	l8.866,9.017c1.525-3.909,6.357-11.546,12.256-16.973L22.731,0z"/>
</svg>
