<?xml version="1.0" encoding="utf-8"?>
<!-- Generator: Adobe Illustrator 15.0.0, SVG Export Plug-In  -->
<!DOCTYPE svg PUBLIC "-//W3C//DTD SVG 1.1//EN" "http://www.w3.org/Graphics/SVG/1.1/DTD/svg11.dtd" [
	<!ENTITY ns_flows "http://ns.adobe.com/Flows/1.0/">
]>
<svg version="1.1"
	 xmlns="http://www.w3.org/2000/svg" xmlns:xlink="http://www.w3.org/1999/xlink" xmlns:a="http://ns.adobe.com/AdobeSVGViewerExtensions/3.0/"
	 x="0px" y="0px" width="14px" height="16px" viewBox="-0.131 0 14 16" overflow="visible" enable-background="new -0.131 0 14 16"
	 xml:space="preserve">
<defs>
</defs>
<path d="M3.869,6.082c0.003,0.003,0.007,0.006,0.01,0.01l1.394,1.394L5.758,7L5.234,6.475L4.996,6.237l1.217-1.216l0.16,0.018
	c0.041,0.005,0.083,0.007,0.125,0.007c0.083,0,0.166-0.009,0.245-0.028L5.848,4.122C5.83,4.105,5.81,4.088,5.791,4.072
	C6.068,3.08,5.816,1.972,5.036,1.191C4.262,0.418,3.164,0.165,2.179,0.431l1.671,1.67L3.412,3.74L1.773,4.178L0.102,2.507
	c-0.266,0.986-0.013,2.084,0.762,2.858C1.677,6.178,2.846,6.416,3.869,6.082z M8.807,7.083c-0.027,0.119-0.033,0.245-0.02,0.372
	l0.018,0.16L8.691,7.728L7.826,8.592L7.589,8.83L6.827,8.068L6.341,8.554l4.411,4.412c0.272,0.271,0.628,0.408,0.984,0.408
	c0.357,0,0.714-0.136,0.985-0.408c0.544-0.544,0.544-1.426,0-1.969L8.807,7.083z M12.214,12.509l-0.699,0.188l-0.568-0.568
	l0.188-0.7l0.7-0.187l0.567,0.567L12.214,12.509z M6.832,7.599l0.762,0.762l0.865-0.865c-0.048-0.422,0.089-0.86,0.413-1.183
	c0.323-0.323,0.762-0.461,1.184-0.414l3.78-3.781L11.719,0l-3.78,3.781c0.046,0.421-0.091,0.859-0.414,1.184
	C7.2,5.288,6.763,5.426,6.341,5.377L5.477,6.243l0.762,0.762L2.503,10.74l-0.138-0.136l-0.716,0.577l-1.207,1.905l0.308,0.309
	l1.906-1.208l0.577-0.717l-0.137-0.136L6.832,7.599z"/>
</svg>
