<?xml version="1.0" encoding="utf-8"?>
<!-- Generator: Adobe Illustrator 15.0.0, SVG Export Plug-In  -->
<!DOCTYPE svg PUBLIC "-//W3C//DTD SVG 1.1//EN" "http://www.w3.org/Graphics/SVG/1.1/DTD/svg11.dtd" [
	<!ENTITY ns_flows "http://ns.adobe.com/Flows/1.0/">
]>
<svg version="1.1"
	 xmlns="http://www.w3.org/2000/svg" xmlns:xlink="http://www.w3.org/1999/xlink" xmlns:a="http://ns.adobe.com/AdobeSVGViewerExtensions/3.0/"
	 x="0px" y="0px" width="27px" height="28px" viewBox="0 0 27 28" overflow="visible" enable-background="new 0 0 27 28"
	 xml:space="preserve">
<defs>
</defs>
<path fill="#9CBF03" d="M27,23.915c0,2.129-1.727,3.856-3.857,3.856H3.857C1.727,27.771,0,26.044,0,23.915V3.856
	C0,1.728,1.727,0,3.857,0h19.285C25.273,0,27,1.728,27,3.856V23.915z"/>
<path fill="#ACCA2D" d="M23.143,0H3.857C1.727,0,0,1.728,0,3.856v5.271c4.526,6.502,17.957,7.419,25.802,5.279
	c0.45-0.113,0.844-0.297,1.198-0.526V3.856C27,1.728,25.273,0,23.143,0z"/>
<path fill="#FFFFFF" d="M17.281,17.788h-1.884v1.883h1.884V17.788z M14.629,12.744h-1.886v1.887h1.886V12.744z M17.281,15.267
	h-1.884v1.883h1.884V15.267z M19.937,12.744h-1.884v1.887h1.884V12.744z M14.629,15.267h-1.886v1.883h1.886V15.267z M17.281,12.744
	h-1.884v1.887h1.884V12.744z M19.937,15.267h-1.884v1.883h1.884V15.267z M9.318,17.788H7.434v1.883h1.884V17.788z M9.318,15.267
	H7.434v1.883h1.884V15.267z M19.449,6.102v0.83c0.325,0.286,0.535,0.706,0.535,1.172c0,0.865-0.707,1.569-1.572,1.569
	c-0.867,0-1.567-0.704-1.567-1.569c0-0.466,0.204-0.886,0.53-1.172v-0.83H10.04v0.83c0.326,0.286,0.533,0.706,0.533,1.172
	c0,0.865-0.705,1.569-1.57,1.569c-0.868,0-1.571-0.704-1.571-1.569c0-0.466,0.208-0.886,0.533-1.172v-0.83H4.468v16.699h18.337
	V6.102H19.449z M21.131,21.126H6.141V10.693h14.99V21.126z M11.974,12.744h-1.885v1.887h1.885V12.744z M11.974,17.788h-1.885v1.883
	h1.885V17.788z M14.629,17.788h-1.886v1.883h1.886V17.788z M11.974,15.267h-1.885v1.883h1.885V15.267z M9.002,9.018
	c0.433,0,0.78-0.348,0.78-0.778V5.424c0-0.432-0.347-0.781-0.78-0.781c-0.432,0-0.781,0.349-0.781,0.781V8.24
	C8.221,8.669,8.57,9.018,9.002,9.018z M18.412,9.018c0.432,0,0.78-0.348,0.78-0.778V5.424c0-0.432-0.349-0.781-0.78-0.781
	s-0.78,0.349-0.78,0.781V8.24C17.632,8.669,17.98,9.018,18.412,9.018z"/>
</svg>
