<?xml version="1.0" encoding="utf-8"?>
<!-- Generator: Adobe Illustrator 15.0.0, SVG Export Plug-In  -->
<!DOCTYPE svg PUBLIC "-//W3C//DTD SVG 1.1//EN" "http://www.w3.org/Graphics/SVG/1.1/DTD/svg11.dtd" [
	<!ENTITY ns_flows "http://ns.adobe.com/Flows/1.0/">
]>
<svg version="1.1"
	 xmlns="http://www.w3.org/2000/svg" xmlns:xlink="http://www.w3.org/1999/xlink" xmlns:a="http://ns.adobe.com/AdobeSVGViewerExtensions/3.0/"
	 x="0px" y="0px" width="27px" height="28px" viewBox="0.089 0 27 28" overflow="visible" enable-background="new 0.089 0 27 28"
	 xml:space="preserve">
<defs>
</defs>
<path fill="#00AEEF" d="M27.089,23.915c0,2.129-1.727,3.856-3.857,3.856H3.946c-2.131,0-3.857-1.728-3.857-3.856V3.856
	C0.089,1.728,1.815,0,3.946,0h19.285c2.131,0,3.857,1.728,3.857,3.856V23.915z"/>
<path opacity="0.4" fill="#77D4F7" d="M23.143,0.01H3.856C1.727,0.01,0,2.025,0,4.512v5.769c3.12,2.194,6.79,3.575,9.591,5.211
	c5.794,2.029,11.916,0.52,17.409-2.688V4.512C27,2.025,25.272,0.01,23.143,0.01z"/>
<path fill="#FFFFFF" d="M17.094,13.823h-6.361c-2.16,0-3.913,1.393-3.913,3.109v1.103l0.531,0.229l-0.531,2.77h14.188l-0.531-2.9
	l0.531-0.112v-1.089C21.008,15.216,19.256,13.823,17.094,13.823z"/>
<line fill="none" stroke="#FFFFFF" stroke-width="1.2108" stroke-linecap="round" x1="5.596" y1="22.526" x2="22.721" y2="22.526"/>
<rect x="9.754" y="9.888" fill="#FFFFFF" width="1.713" height="3.731"/>
<path fill="#FFFFFF" d="M10.965,6.594c0,0-0.064,0.128-0.59,0.663c-0.312,0.317-0.434,0.488-0.373,0.749
	c-0.09,0.108-0.045,0.242-0.045,0.386c0,0.372,0.351,0.671,0.779,0.671c0.43,0,0.778-0.299,0.778-0.671
	c0-0.021,0.064-0.04,0.062-0.062c0.051-0.05,0.033-0.106,0.077-0.169C12.122,7.482,10.965,6.594,10.965,6.594z"/>
<rect x="12.908" y="8.513" fill="#FFFFFF" width="1.715" height="5.023"/>
<path fill="#FFFFFF" d="M14.12,5.544c0,0-0.065,0.125-0.59,0.66c-0.315,0.322-0.432,0.491-0.374,0.751
	c-0.09,0.108-0.044,0.241-0.044,0.388c0,0.368,0.349,0.667,0.776,0.667c0.432,0,0.779-0.299,0.779-0.667
	c0-0.021,0.065-0.046,0.062-0.065c0.052-0.049,0.034-0.104,0.075-0.167C15.275,6.433,14.12,5.544,14.12,5.544z"/>
<rect x="16.064" y="9.888" fill="#FFFFFF" width="1.709" height="3.731"/>
<path fill="#FFFFFF" d="M17.273,6.594c0,0-0.066,0.128-0.589,0.663c-0.315,0.317-0.434,0.488-0.373,0.749
	c-0.092,0.108-0.046,0.242-0.046,0.386c0,0.372,0.349,0.671,0.777,0.671c0.43,0,0.779-0.299,0.779-0.671
	c0-0.021,0.065-0.04,0.062-0.062c0.05-0.05,0.033-0.106,0.074-0.169C18.43,7.482,17.273,6.594,17.273,6.594z"/>
<path fill="none" stroke="#00AEEF" stroke-width="0.7" stroke-linecap="round" d="M7.013,16.387c0,0,0.946-0.145,2.163,0.488
	c1.679,0.865,1.373,0.991,2.408,1.061c1.926,0.131,1.621-0.546,2.432-0.843c0.947-0.356,1.696-0.625,2.647,0.046
	c0.955,0.665,0.879,1.471,2.019,1.039c1.143-0.438,1.148-1.028,2.111-0.9"/>
<path fill="#E1FFFF" d="M10.877,7.422c0,0-0.026,0.067-0.265,0.348c-0.141,0.167-0.194,0.258-0.169,0.395
	c-0.04,0.056-0.02,0.127-0.02,0.202c0,0.195,0.159,0.352,0.352,0.352c0.194,0,0.352-0.156,0.352-0.352
	c0-0.011,0.029-0.021,0.027-0.033c0.023-0.025,0.016-0.056,0.035-0.089C11.4,7.89,10.877,7.422,10.877,7.422z"/>
<path fill="#E1FFFF" d="M14.015,6.494c0,0-0.027,0.067-0.266,0.348c-0.14,0.167-0.194,0.258-0.169,0.395
	c-0.041,0.056-0.02,0.127-0.02,0.202c0,0.195,0.159,0.352,0.352,0.352c0.195,0,0.353-0.156,0.353-0.352
	c0-0.011,0.028-0.021,0.026-0.033c0.023-0.025,0.016-0.056,0.035-0.089C14.537,6.962,14.015,6.494,14.015,6.494z"/>
<path fill="#E1FFFF" d="M17.174,7.449c0,0-0.027,0.067-0.266,0.348c-0.141,0.167-0.194,0.258-0.17,0.395
	c-0.039,0.056-0.019,0.127-0.019,0.202c0,0.195,0.159,0.352,0.352,0.352c0.194,0,0.353-0.156,0.353-0.352
	c0-0.011,0.028-0.021,0.027-0.033c0.021-0.025,0.015-0.056,0.034-0.089C17.696,7.917,17.174,7.449,17.174,7.449z"/>
</svg>
