<?xml version="1.0" encoding="utf-8"?>
<!-- Generator: Adobe Illustrator 15.0.0, SVG Export Plug-In  -->
<!DOCTYPE svg PUBLIC "-//W3C//DTD SVG 1.1//EN" "http://www.w3.org/Graphics/SVG/1.1/DTD/svg11.dtd" [
	<!ENTITY ns_flows "http://ns.adobe.com/Flows/1.0/">
]>
<svg version="1.1"
	 xmlns="http://www.w3.org/2000/svg" xmlns:xlink="http://www.w3.org/1999/xlink" xmlns:a="http://ns.adobe.com/AdobeSVGViewerExtensions/3.0/"
	 x="0px" y="0px" width="22px" height="22px" viewBox="-4.703 -1.18 22 22"
	 overflow="visible" enable-background="new -4.703 -1.18 22 22" xml:space="preserve">
<defs>
</defs>
<g>
	<g>
		<path fill="#CCCCCC" d="M7.04,17.289v-6.595c3.122-0.369,5.555-3.032,5.555-6.253c0-0.894-0.207-2.693-0.767-3.716L11.434,0H1.16
			L0.764,0.726C0.206,1.75,0,3.548,0,4.441c0,3.254,2.478,5.939,5.647,6.265v6.583C3.1,17.367,1.135,17.862,1.135,18.46
			c0,0.653,2.332,1.181,5.21,1.181c2.876,0,5.206-0.527,5.206-1.181C11.551,17.862,9.586,17.367,7.04,17.289"/>
	</g>
</g>
</svg>
