<?xml version="1.0" encoding="utf-8"?>
<!-- Generator: Adobe Illustrator 15.0.0, SVG Export Plug-In  -->
<!DOCTYPE svg PUBLIC "-//W3C//DTD SVG 1.1//EN" "http://www.w3.org/Graphics/SVG/1.1/DTD/svg11.dtd" [
	<!ENTITY ns_flows "http://ns.adobe.com/Flows/1.0/">
]>
<svg version="1.1"
	 xmlns="http://www.w3.org/2000/svg" xmlns:xlink="http://www.w3.org/1999/xlink" xmlns:a="http://ns.adobe.com/AdobeSVGViewerExtensions/3.0/"
	 x="0px" y="0px" width="114px" height="89px" viewBox="-17.769 -13.965 114 89"
	 overflow="visible" enable-background="new -17.769 -13.965 114 89" xml:space="preserve">
<defs>
</defs>
<path fill="#FFFFFF" d="M38.894,9.768c5.361,0,10.213,2.008,14.032,5.2l5.576-8.138C53.097,2.563,46.296,0,38.894,0
	C21.392,0,7.149,14.235,7.149,31.742c0,0.912,0.062,1.814,0.14,2.708l4.5,7.384l5.313-8.26c-0.052-0.614-0.189-1.205-0.189-1.832
	C16.915,19.623,26.775,9.768,38.894,9.768z"/>
<path fill="#FFFFFF" d="M2.405,31.684c-2.195-0.033-3.044,1.477-1.889,3.346l9.361,15.112c1.155,1.866,3.08,1.884,4.277,0.047
	l9.71-14.885c1.198-1.84,0.384-3.36-1.808-3.387L2.405,31.684z"/>
<path fill="#FFFFFF" d="M39.142,51.559c-5.361,0-10.213-1.995-14.03-5.203l-5.578,8.141c5.405,4.267,12.206,6.83,19.608,6.83
	c17.504,0,31.744-14.234,31.744-31.742c0-0.922-0.062-1.805-0.137-2.708l-4.503-7.384l-5.314,8.268
	c0.054,0.606,0.185,1.197,0.185,1.824C61.116,41.711,51.26,51.559,39.142,51.559z"/>
<path fill="#FFFFFF" d="M75.633,29.643c2.186,0.034,3.041-1.477,1.886-3.346l-9.362-15.113c-1.152-1.866-3.08-1.885-4.277-0.046
	l-9.711,14.883c-1.197,1.842-0.384,3.362,1.809,3.389L75.633,29.643z"/>
</svg>
